# xmcd
#
# Track frame offsets:
#	150
#	18344
#	34178
#	51686
#	70075
#	91265
#	105542
#	122390
#	139837
#	156240
#
# Disc length: 2363 seconds
#
# Revision: 0
# Processed by: cddbd v1.5.2PL0 Copyright (c) Steve Scherf et al.
# Submitted via: audiograbber 1.83.01
#
DISCID=8209390a
DTITLE=QUICK HITZ - QH1008
DYEAR=2007
DGENRE=Karaoke
TTITLE0=LADY ANTEBELLUM - Need You Now
TTITLE1=LADY ANTEBELLUM - AMERICAN HONEY
TTITLE2=LADY ANTEBELLUM -  I RUN TO YOU
TTITLE3=LADY ANTEBELLUM - LOVE DON'T LIVE HERE
TTITLE4=LADY ANTEBELLUM - ALL WE'D EVER NEED
TTITLE5=LADY ANTEBELLUM - LOOKIN' FOR A GOOD TIME
TTITLE6=LADY ANTEBELLUM - HOME IS WHERE THE HEART IS 
TTITLE7=LADY ANTEBELLUM - NEVER ALONE
TTITLE8=LADY ANTEBELLUM - I WAS HERE
TTITLE9=LADY ANTEBELLUM - CAN'T TAKE MY EYES OFF YOU
EXTD=This disk is improperly identified in your database. It come up as QH1007,
EXTD=which is a lady gaga disc from quick hits. qh1008 is th proper disc numbe
EXTD=r
EXTT0=
EXTT1=
EXTT2=
EXTT3=
EXTT4=
EXTT5=
EXTT6=
EXTT7=
EXTT8=
EXTT9=
PLAYORDER=
